<svg xmlns="http://www.w3.org/2000/svg" width="750" height="493" viewBox="0 0 750 493"><g transform="translate(-9 -644)"><g transform="translate(9 644)" fill="#393939" stroke="#777" stroke-width="2"><rect width="750" height="493" rx="26" stroke="none"/><rect x="1" y="1" width="748" height="491" rx="25" fill="none"/></g><rect width="697" height="439" rx="13" transform="translate(36 671)" fill="#e8eaf6"/><line y1="27" transform="translate(154 1110)" fill="none" stroke="#707070" stroke-width="1"/><path d="M8,0H331a8,8,0,0,1,8,8V328a0,0,0,0,1,0,0H0a0,0,0,0,1,0,0V8A8,8,0,0,1,8,0Z" transform="translate(110 782)" fill="#fff"/><path d="M8,0H158a8,8,0,0,1,8,8V328a0,0,0,0,1,0,0H0a0,0,0,0,1,0,0V8A8,8,0,0,1,8,0Z" transform="translate(493 782)" fill="#fff"/><path d="M13,0H684a13,13,0,0,1,13,13V78a0,0,0,0,1,0,0H0a0,0,0,0,1,0,0V13A13,13,0,0,1,13,0Z" transform="translate(36 671)" fill="#5267df"/><ellipse cx="20.5" cy="21" rx="20.5" ry="21" transform="translate(65 689)" fill="#7c8ce7"/><ellipse cx="20.5" cy="21" rx="20.5" ry="21" transform="translate(663 689)" fill="#7c8ce7"/><g transform="translate(126.417 701.087)"><line x2="149.204" transform="translate(0 0)" fill="none" stroke="#d4d9f7" stroke-linecap="round" stroke-width="6"/><line x2="76.548" transform="translate(0 18.164)" fill="none" stroke="#7e8de7" stroke-linecap="round" stroke-width="6"/></g><g transform="translate(150.42 822.652)"><circle cx="20.759" cy="20.759" r="20.759" transform="translate(0 0)" fill="#f98e5d"/><g transform="translate(63.545 11.677)"><line x2="149.204" fill="none" stroke="#9194a1" stroke-linecap="round" stroke-width="6"/><line x2="76.548" transform="translate(0 18.164)" fill="none" stroke="#c8c9d0" stroke-linecap="round" stroke-width="6"/></g></g><g transform="translate(150.42 895.308)"><circle cx="20.759" cy="20.759" r="20.759" transform="translate(0 0)" fill="#6ac6d6"/><g transform="translate(63.545 11.677)"><line x2="149.204" fill="none" stroke="#9194a1" stroke-linecap="round" stroke-width="6"/><line x2="76.548" transform="translate(0 18.164)" fill="none" stroke="#c8c9d0" stroke-linecap="round" stroke-width="6"/></g></g><g transform="translate(150.42 967.964)"><circle cx="20.759" cy="20.759" r="20.759" transform="translate(0 0)" fill="#a47ed4"/><g transform="translate(63.545 11.677)"><line x2="149.204" fill="none" stroke="#9194a1" stroke-linecap="round" stroke-width="6"/><line x2="76.548" transform="translate(0 18.164)" fill="none" stroke="#c8c9d0" stroke-linecap="round" stroke-width="6"/></g></g><g transform="translate(150.42 1040.62)"><circle cx="20.759" cy="20.759" r="20.759" transform="translate(0 0)" fill="#ec7878"/><g transform="translate(63.545 11.677)"><line x2="149.204" fill="none" stroke="#9194a1" stroke-linecap="round" stroke-width="6"/><line x2="76.548" transform="translate(0 18.164)" fill="none" stroke="#c8c9d0" stroke-linecap="round" stroke-width="6"/></g></g><line x2="104.472" transform="translate(524.079 814.219)" fill="none" stroke="#c8c9d0" stroke-linecap="round" stroke-width="6"/><line x2="104.472" transform="translate(524.079 838.87)" fill="none" stroke="#c8c9d0" stroke-linecap="round" stroke-width="6"/><line x2="104.472" transform="translate(524.079 863.521)" fill="none" stroke="#c8c9d0" stroke-linecap="round" stroke-width="6"/><line x2="104.472" transform="translate(524.079 888.172)" fill="none" stroke="#c8c9d0" stroke-linecap="round" stroke-width="6"/><line x2="104.472" transform="translate(524.079 912.823)" fill="none" stroke="#c8c9d0" stroke-linecap="round" stroke-width="6"/><line x2="104.472" transform="translate(524.079 937.475)" fill="none" stroke="#c8c9d0" stroke-linecap="round" stroke-width="6"/><line x2="104.472" transform="translate(524.079 962.126)" fill="none" stroke="#c8c9d0" stroke-linecap="round" stroke-width="6"/><line x2="104.472" transform="translate(524.079 986.777)" fill="none" stroke="#c8c9d0" stroke-linecap="round" stroke-width="6"/></g></svg>